<svg xmlns="http://www.w3.org/2000/svg" viewBox="0 0 512 512">
  <defs>
    <linearGradient id="grad" x1="0%" y1="0%" x2="100%" y2="100%">
      <stop offset="0%" style="stop-color:#4f46e5;stop-opacity:1" />
      <stop offset="100%" style="stop-color:#06b6d4;stop-opacity:1" />
    </linearGradient>
  </defs>
  
  <rect width="512" height="512" rx="100" fill="url(#grad)" />
  
  <path d="M140 150 L300 150 L300 200 L190 200 L190 230 L280 230 L280 280 L190 280 L190 310 L300 310 L300 360 L140 360 Z" fill="white" />
  <path d="M320 150 L420 150 L420 250 L370 250 L370 200 L370 200 L420 360 L360 360 L320 250 L320 360 L270 360 L270 150 Z" fill="white" opacity="0.9" />
  
  <path d="M280 80 L320 80 L250 430 L210 430 Z" fill="#fbbf24" stroke="white" stroke-width="10" />
</svg>