<svg xmlns="http://www.w3.org/2000/svg" viewBox="0 0 512 512">
  <defs>
    <linearGradient id="techGrad" x1="0%" y1="0%" x2="100%" y2="100%">
      <stop offset="0%" stop-color="#305795ff" /> <stop offset="100%" stop-color="#0f172a" /> </linearGradient>
    
    <filter id="shadow" x="-20%" y="-20%" width="140%" height="140%">
      <feDropShadow dx="2" dy="4" stdDeviation="4" flood-opacity="0.5"/>
    </filter>

    <pattern id="scanlines" width="1" height="6" patternUnits="userSpaceOnUse">
      <rect width="1" height="6" fill="white" />
      <rect y="4" width="1" height="2" fill="black" /> 
    </pattern>

    <mask id="textureMask">
      <rect width="100%" height="100%" fill="url(#scanlines)" />
    </mask>
  </defs>

  <rect x="0" y="0" width="512" height="512" rx="100" fill="url(#techGrad)" stroke="#334155" stroke-width="10"/>

  <path d="M40 280 L230 280 L200 220 L480 280 L290 280 L320 340 Z" fill="#fbbf24" stroke="#0f172a" stroke-width="8" filter="url(#shadow)"/>

  <g transform="translate(18, 81) scale(1.4)" fill="#ffffff" filter="url(#shadow)" mask="url(#textureMask)">
    
    <path d="M 130 50 H 50 V 200 H 130 V 165 H 90 V 145 H 125 V 110 H 90 V 85 H 130 V 50 Z" />
    
    <path d="M 160 50 V 200 H 200 V 150 H 210 L 240 200 H 290 L 250 145 C 275 140 290 120 290 95 C 290 65 270 50 230 50 H 160 Z M 200 85 H 230 C 245 85 250 90 250 100 C 250 110 245 115 230 115 H 200 V 85 Z" />
    
  </g>
  
</svg>